<svg id="Capa_1" data-name="Capa 1" xmlns="http://www.w3.org/2000/svg" viewBox="0 0 35 35"><defs><style>.cls-1{fill:#757575;}</style></defs><title>plataformas</title><path class="cls-1" d="M28,11V7.5A1.5,1.5,0,0,0,26.5,6H7.5A1.5,1.5,0,0,0,6,7.5V11H6L7.72,23h0A1.7,1.7,0,0,0,6,24.7v1.6A1.7,1.7,0,0,0,7.7,28H26.3A1.7,1.7,0,0,0,28,26.3V24.7A1.7,1.7,0,0,0,26.3,23h0L28,11h0Zm-20.86.84L9,13.71V23H8.73ZM21,20.5a1.5,1.5,0,1,1,2,1.41V23H22V21.91A1.5,1.5,0,0,1,21,20.5ZM20,17v3H19v1H18V20h1V19H15v1h1v1H15V20H14V17H13v1H12V17h1V16h1V15H13V14h1v1h1v1h4V15h1V14h1v1H20v1h1v1h1v1H21V17H20Zm0.15,5.78V23h-1V22.78a0.28,0.28,0,0,1,.28-0.28h0.44A0.28,0.28,0,0,1,20.15,22.78Zm-5.37,0V23h-1V22.78a0.28,0.28,0,0,1,.28-0.28H14.5A0.28,0.28,0,0,1,14.78,22.78ZM10,20.5a1.5,1.5,0,1,1,2,1.41V23H11V21.91A1.5,1.5,0,0,1,10,20.5ZM9.71,13l-2-2H26.29l-2,2H9.71ZM26.3,24a0.7,0.7,0,0,1,.7.7v1.6a0.7,0.7,0,0,1-.7.7H7.7A0.7,0.7,0,0,1,7,26.3V24.7A0.7,0.7,0,0,1,7.7,24H26.3Zm-1-1H25V13.71l1.87-1.87ZM27,10H7V7.5A0.5,0.5,0,0,1,7.5,7h19a0.5,0.5,0,0,1,.5.5V10Z"/><rect class="cls-1" x="15" y="17" width="1" height="1"/><rect class="cls-1" x="18" y="17" width="1" height="1"/><circle class="cls-1" cx="11.5" cy="25.5" r="0.79"/><circle class="cls-1" cx="22.5" cy="25.5" r="0.79"/></svg>