<svg id="Capa_1" data-name="Capa 1" xmlns="http://www.w3.org/2000/svg" viewBox="0 0 35 35"><defs><style>.cls-1{fill:#757575;}</style></defs><title>plataformas</title><path class="cls-1" d="M24,15V8.38A0.38,0.38,0,0,0,23.62,8H13.38a0.38,0.38,0,0,0-.38.38v8.24a0.38,0.38,0,0,0,.38.38H22A1.82,1.82,0,0,0,24,15Zm-2,1H15V9h7v7Z"/><path class="cls-1" d="M27,25V5a1,1,0,0,0-1-1H11a1,1,0,0,0-1,1V29a1,1,0,0,0,1,1H23a4.91,4.91,0,0,0,3.08-1.38l0,0C27.15,27.55,27,25.23,27,25ZM11,5h2V6H11V5Zm13,19.59,1.87,1.87a4.6,4.6,0,0,1-.15.67L23.67,25a0.5,0.5,0,0,0-.71.71l2.3,2.3a5.15,5.15,0,0,1-.43.32l-2.24-2.24a0.5,0.5,0,0,0-.71.71l2,2a3.42,3.42,0,0,1-.74.18l-1.67-1.67a0.5,0.5,0,0,0-.71.71l1,1L11,29,11,7H26V6H14V5L26,5V25s0,0.05,0,.07l-1.22-1.22A0.5,0.5,0,0,0,24.07,24.59Z"/><polygon class="cls-1" points="15 23 15 22 16 22 16 21 15 21 15 20 14 20 14 21 13 21 13 22 14 22 14 23 15 23"/><circle class="cls-1" cx="21.5" cy="22.5" r="0.7"/><circle class="cls-1" cx="23.46" cy="21.3" r="0.7"/><path class="cls-1" d="M20.06,23.89l-1.8.62a0.5,0.5,0,0,0,.16,1l0.16,0,1.8-.62A0.5,0.5,0,0,0,20.06,23.89Z"/><path class="cls-1" d="M16.83,23.89l-1.8.62a0.5,0.5,0,0,0,.16,1l0.16,0,1.8-.62A0.5,0.5,0,1,0,16.83,23.89Z"/></svg>