<svg id="Capa_1" data-name="Capa 1" xmlns="http://www.w3.org/2000/svg" viewBox="0 0 35 35"><defs><style>.cls-1{fill:#757575;}</style></defs><title>plataformas</title><path class="cls-1" d="M29.92,14.63A2.72,2.72,0,0,0,27,12H26l-1.35-1.53a1.35,1.35,0,0,0-1-.47H11.37a1.35,1.35,0,0,0-1,.47L9,12H8a2.69,2.69,0,0,0-2.91,2.58L4.5,23.51a2.81,2.81,0,0,0,2,2.71c1.88,0.6,4.4,1.31,10.49,1.31a36.92,36.92,0,0,0,11.38-1.42,2.8,2.8,0,0,0,2.11-2.78ZM28.11,25.15A35.94,35.94,0,0,1,17,26.53c-6,0-8.38-.69-10.19-1.26A1.82,1.82,0,0,1,5.49,23.6l0.59-8.92A1.74,1.74,0,0,1,8,13H9.46l1.65-1.87A0.34,0.34,0,0,1,11.37,11H23.61a0.34,0.34,0,0,1,.26.13L25.53,13H27a1.74,1.74,0,0,1,1.92,1.67l0.58,8.75A1.79,1.79,0,0,1,28.11,25.15Z"/><path class="cls-1" d="M22,13H13a2,2,0,0,0-2,2v7.66a2,2,0,0,0,1.49,1.92A19.1,19.1,0,0,0,17,25a30.55,30.55,0,0,0,5.51-.45A2,2,0,0,0,24,22.63V15A2,2,0,0,0,22,13Zm1,9H12V15H23v7Z"/><polygon class="cls-1" points="9 16 8 16 8 17 7 17 7 18 8 18 8 19 9 19 9 18 10 18 10 17 9 17 9 16"/><circle class="cls-1" cx="25.5" cy="18.5" r="0.75"/><circle class="cls-1" cx="9.5" cy="21.5" r="0.5"/><circle class="cls-1" cx="9.5" cy="23.5" r="0.5"/><circle class="cls-1" cx="27.5" cy="16.5" r="0.75"/></svg>