<svg id="Capa_1" data-name="Capa 1" xmlns="http://www.w3.org/2000/svg" viewBox="0 0 35 35"><defs><style>.cls-1{fill:#757575;}</style></defs><title>plataformas</title><path class="cls-1" d="M24.5,4H9.5A1.5,1.5,0,0,0,8,5.5v22a1.48,1.48,0,0,0,.64,1.23c1,0.65,3.25,1.75,7.86,1.75a18.92,18.92,0,0,0,8.7-1.75,1.49,1.49,0,0,0,.8-1.33V5.5A1.5,1.5,0,0,0,24.5,4ZM25,27.42a0.49,0.49,0,0,1-.26.44A18.09,18.09,0,0,1,16.5,29.5c-4.51,0-6.6-1.1-7.3-1.57a0.49,0.49,0,0,1-.2-0.4V5.5A0.5,0.5,0,0,1,9.5,5h15a0.5,0.5,0,0,1,.5.5V27.42Z"/><path class="cls-1" d="M23.42,6H10.58a0.58,0.58,0,0,0-.58.58V16.64a0.58,0.58,0,0,0,.36.54C11.08,17.46,13,18,17,18s5.92-.54,6.64-0.83A0.58,0.58,0,0,0,24,16.64V6.58A0.58,0.58,0,0,0,23.42,6ZM22,16H12V7H22v9Z"/><polygon class="cls-1" points="14 21 13 21 13 20 12 20 12 21 11 21 11 22 12 22 12 23 13 23 13 22 14 22 14 21"/><path class="cls-1" d="M15.5,25h-1a0.5,0.5,0,0,0,0,1h1A0.5,0.5,0,0,0,15.5,25Z"/><path class="cls-1" d="M19.5,25h-1a0.5,0.5,0,0,0,0,1h1A0.5,0.5,0,0,0,19.5,25Z"/><circle class="cls-1" cx="20.25" cy="22" r="1"/><circle class="cls-1" cx="22.59" cy="20.2" r="1"/></svg>