<svg id="Capa_1" data-name="Capa 1" xmlns="http://www.w3.org/2000/svg" viewBox="0 0 35 35"><defs><style>.cls-1{fill:#757575;}</style></defs><title>plataformas</title><path class="cls-1" d="M25,16.3a1.09,1.09,0,0,0,1-1.13V14.33a1,1,0,1,0-2,0v0.84A1.09,1.09,0,0,0,25,16.3Z"/><path class="cls-1" d="M23,12.75c0-.36,0-0.74-6-0.74s-6,.38-6,0.74,0,0.74,6,.74S23,13.11,23,12.75Z"/><path class="cls-1" d="M9,13.21a1,1,0,0,0-1,1.13v0.84a1,1,0,1,0,2,0V14.33A1,1,0,0,0,9,13.21Z"/><path class="cls-1" d="M29,19.87V18.68a1.34,1.34,0,0,0-.23-0.83L28,13.51C28,11.4,26.14,10,23.71,10H10.31c-2.44,0-4.21,1.39-4.2,3.48L5.18,18.23a0.68,0.68,0,0,0-.18.45v1.19A1.09,1.09,0,0,0,4,21v3c0,1.11,1.89,1.5,3.5,1.5,1.43,0,3.08-.31,3.43-1.15,1.87,0.09,3.66.15,6.07,0.15s4.2-.06,6.07-0.15c0.35,0.84,2,1.15,3.43,1.15,1.61,0,3.5-.39,3.5-1.5V21A1.09,1.09,0,0,0,29,19.87ZM7.1,13.57C7.1,12,8.45,11,10.31,11h13.4c1.88,0,3.3,1,3.3,2.57l0.83,3.9a21.26,21.26,0,0,1-5.55-1.09,17.46,17.46,0,0,0-5.24-1,15.15,15.15,0,0,0-5,.91,19.05,19.05,0,0,1-5.75,1.18ZM26.5,24.51A4.49,4.49,0,0,1,24,24v-0.7l-0.53,0c-2,.1-3.89.17-6.47,0.17s-4.45-.07-6.47-0.17l-0.53,0V24a3.94,3.94,0,0,1-2.51.55A4.49,4.49,0,0,1,5,24V21S5,20.94,5,21a1.41,1.41,0,0,1,.61-0.19L6,20.69v-2a0.64,0.64,0,0,1,.44-0.21,21.86,21.86,0,0,0,6.19-1.12,15.35,15.35,0,0,1,4.76-.87,15.7,15.7,0,0,1,4.85.89,19.43,19.43,0,0,0,5.74,1,0.58,0.58,0,0,1,0,.23v2l0.41,0.08a2.84,2.84,0,0,1,.59.15A0.61,0.61,0,0,1,29,21V24A3.94,3.94,0,0,1,26.5,24.51Z"/><circle class="cls-1" cx="14.81" cy="21.29" r="1.06"/><circle class="cls-1" cx="19.87" cy="21.29" r="1.06"/><circle class="cls-1" cx="22.81" cy="21.29" r="1.06"/><path class="cls-1" d="M19,18.8L19.49,18A0.7,0.7,0,0,0,19,17H15.73a0.61,0.61,0,0,0-.47.86l0.47,1C15.82,19.08,16,19,16.2,19h2.35A0.46,0.46,0,0,0,19,18.8Z"/><circle class="cls-1" cx="11.97" cy="21.29" r="1.06"/></svg>