<svg id="Capa_1" data-name="Capa 1" xmlns="http://www.w3.org/2000/svg" viewBox="0 0 35 35"><defs><style>.cls-1{fill:#757575;}</style></defs><title>plataformas</title><path class="cls-1" d="M27.94,6H7.06A2.06,2.06,0,0,0,5,8.06V27.94A2.06,2.06,0,0,0,7.06,30H27.94A2.06,2.06,0,0,0,30,27.94V8.06A2.06,2.06,0,0,0,27.94,6ZM24,7V8H11V7H24ZM11,26V23H24v3H11ZM8.7,22A0.7,0.7,0,0,1,8,21.3V9.7A0.7,0.7,0,0,1,8.7,9H26.3a0.7,0.7,0,0,1,.7.7V21.3a0.7,0.7,0,0,1-.7.7H8.7ZM6,8.06A1.06,1.06,0,0,1,7.06,7H10V8H8.7A1.7,1.7,0,0,0,7,9.7V21.3A1.7,1.7,0,0,0,8.7,23H10v3H7.06C6.47,26,6,26,6,25V8.06ZM27.94,29H7.06A1.06,1.06,0,0,1,6,27.94V26.68A2,2,0,0,0,7.06,27H27.94A2,2,0,0,0,29,26.68v1.26A1.06,1.06,0,0,1,27.94,29Zm0-3H25V23h1.3A1.7,1.7,0,0,0,28,21.3V9.7A1.7,1.7,0,0,0,26.3,8H25V7h2.94A1.06,1.06,0,0,1,29,8.06V25C29,26,28.53,26,27.94,26Z"/><path class="cls-1" d="M10,14.07a0.93,0.93,0,0,0,.93.93H24.07A0.93,0.93,0,0,0,25,14.07V13H10v1.07Z"/><rect class="cls-1" x="10" y="18" width="3" height="3" rx="0.48" ry="0.48"/><rect class="cls-1" x="22" y="18" width="3" height="3" rx="0.48" ry="0.48"/><rect class="cls-1" x="14" y="18" width="7" height="3" rx="0.48" ry="0.48"/><path class="cls-1" d="M11.81,28.5a0.5,0.5,0,0,0,.52.5H17V28H12.33A0.5,0.5,0,0,0,11.81,28.5Z"/><path class="cls-1" d="M22.67,28H18v1h4.67A0.5,0.5,0,1,0,22.67,28Z"/></svg>